<svg width="146" height="24" fill="none" xmlns="http://www.w3.org/2000/svg"><path d="M15.925 9.368l10.074-.193-8.267 5.588 3.302 9.234-8.034-5.9-8.034 5.9 3.302-9.234L0 9.175l10.074.193L13 .016l2.925 9.352zm30-.02l10.074-.192-8.267 5.595 3.302 9.246L43 18.09l-8.034 5.907 3.302-9.246L30 9.156l10.074.193L43-.016l2.925 9.364zm30-.019l10.074-.192-8.267 5.602 3.302 9.258L73 18.082l-8.034 5.915 3.302-9.258L60 9.137l10.074.192L73-.047l2.925 9.376zm30-.019l10.074-.193-8.267 5.61 3.302 9.27L103 18.075l-8.034 5.922 3.302-9.27L90 9.117l10.074.193L103-.078l2.925 9.388zm30 0l10.074-.193-8.267 5.61 3.302 9.27L133 18.075l-8.034 5.922 3.302-9.27L120 9.117l10.074.193L133-.078l2.925 9.388z" fill="#fff" stroke="#3CD072" stroke-width="2" stroke-miterlimit="20"/></svg>